<svg width="132" height="132" viewBox="0 0 132 132" fill="none" xmlns="http://www.w3.org/2000/svg">
<rect x="62" y="8" width="8" height="32" fill="white"/>
<rect x="92" y="62" width="32" height="8" fill="white"/>
<rect x="8" y="62" width="32" height="8" fill="white"/>
<rect x="62" y="92" width="8" height="32" fill="white"/>
<rect x="84" y="40" width="8" height="8" fill="white"/>
<rect x="92" y="32" width="8" height="8" fill="white"/>
<rect x="100" y="24" width="8" height="8" fill="white"/>
<rect x="40" y="40" width="8" height="8" fill="white"/>
<rect x="32" y="32" width="8" height="8" fill="white"/>
<rect x="24" y="24" width="8" height="8" fill="white"/>
<rect x="84" y="84" width="8" height="8" fill="white"/>
<rect x="92" y="92" width="8" height="8" fill="white"/>
<rect x="100" y="100" width="8" height="8" fill="white"/>
<rect x="40" y="84" width="8" height="8" fill="white"/>
<rect x="32" y="92" width="8" height="8" fill="white"/>
<rect x="24" y="100" width="8" height="8" fill="white"/>
</svg>
